<svg id="Layer_1" data-name="Layer 1" xmlns="http://www.w3.org/2000/svg" xmlns:xlink="http://www.w3.org/1999/xlink" viewBox="0 0 1300 1300"><defs><style>.cls-1{fill:none;}.cls-2{clip-path:url(#clip-path);}.cls-3{fill:#ffc60f;}.cls-4{fill:#999;}</style><clipPath id="clip-path"><rect class="cls-1" x="8.6" y="151.89" width="1282.8" height="1007.13"/></clipPath></defs><g id="Artwork_8" data-name="Artwork 8"><g class="cls-2"><polygon points="9.03 961.53 9.03 987.1 68.87 987.1 68.87 1157.66 99.34 1157.66 99.34 987.1 159.18 987.1 159.18 961.53 9.03 961.53"/><polygon points="306.23 961.53 306.23 1045.59 196.34 1045.59 196.34 961.53 166.14 961.53 166.14 1157.66 196.34 1157.66 196.34 1071.16 306.23 1071.16 306.23 1157.66 336.42 1157.66 336.42 961.53 306.23 961.53"/><polygon points="364.76 961.52 364.76 1157.66 497.23 1157.66 497.23 1132.37 394.95 1132.37 394.95 1071.16 490.43 1071.16 490.43 1045.59 394.95 1045.59 394.95 987.1 495.05 987.1 495.05 961.53 495.05 961.52 364.76 961.52"/><g class="cls-2"><path d="M613,1133.72q65.55,0,65.55-74.53,0-73.44-65.55-73.44-66.93,0-66.92,73.44,0,74.54,66.92,74.53M514.53,1060q0-99.84,98.48-99.83,97.11,0,97.11,99.83,0,99-97.11,99-98.47,0-98.48-99"/><path class="cls-3" d="M360.35,257.73Q252.24,365.4,251.94,518.3q-.31,153.51,107.36,262.23,49.23,48.18,100.95,74.18a302.72,302.72,0,0,0,78.87,26.68v4.92l-377.92-.76Q8.29,885.25,8.6,732.35l.86-427.24q.31-153.49,153.21-153.2l382.23.77V157A341,341,0,0,0,461,184.57q-51.23,25.19-100.64,73.16"/><path d="M874.58,556.5Q807.89,604,702.3,662.61q-101.77,57.21-178.5,89.85l-56.68,21.08q-5.36-23-10-68.08-10.55-89.85-10.54-198.38,0-99.36,14.34-185.76l13.83-66.18,60.13,20.21Q613,306.46,704.21,363.66q96.59,60.48,165.71,115.08,34.55,27.48,49.75,42.34L874.58,556.5"/><path class="cls-3" d="M1288.6,305.51V733q0,153-153,153H750V881.1q106.13-20.36,185.7-100.56,108-108.59,108-262.19,0-153-108-261Q854.9,176.56,746.94,156.83v-4.94H1135.6q153,0,153,153.62"/><path class="cls-4" d="M755.76,1090.59c6.57,3.27,14.36,4.93,23.37,4.93q32.18,0,32.17-39.25,0-33.88-31.95-33.88-14.39,0-23.59,2.14v66.06M732,1006.73a236.74,236.74,0,0,1,47.61-4.93q55.34,0,55.33,54.69,0,60-55.54,60-13.74,0-23.59-5.15v45H732V1006.73"/><rect class="cls-4" x="853.06" y="961.91" width="23.81" height="154.63"/><path class="cls-4" d="M893.77,1080.08q0-36.24,47-36.25,16.51,0,26.6,2.15v-8.15q0-15.85-27.67-15.87-16.51,0-37.1,5.15v-19.52a132,132,0,0,1,37.1-5.79q51.47,0,51.47,37.53v77.2H978.05l-7.29-7.72q-13.31,7.73-33.46,7.72-43.54,0-43.53-36.45m47-16.09q-23.16,0-23.16,15.66,0,16.95,19.73,16.94,19.51,0,30-7.72v-23.16q-9.66-1.71-26.6-1.72"/><path class="cls-4" d="M1001.12,1001.8H1026l29.81,86.21,30.67-86.21h24.23l-48.25,118q-10.29,29.6-37.53,37.53l-8.37-16.94q18.89-8.77,26.81-25.31l-42.25-113.23"/><path class="cls-4" d="M1213.1,1067h-74q0,29.6,40.53,29.6a168.28,168.28,0,0,0,31.32-3.22v19.73a186.56,186.56,0,0,1-37.75,3.44q-57.92,0-57.91-58.55,0-56.21,54.9-56.19,53,0,42.9,65.19m-74-20.58h52.33q1.29-24.68-24.24-24.67-26.37,0-28.09,24.67"/><path class="cls-4" d="M1235.43,1116.54V1001.8h17.15l3,14.15q12.23-14.15,35.81-14.15v20.59q-21,0-32.17,12.65v81.5h-23.8"/></g></g></g></svg>